<?xml version="1.0" encoding="UTF-8"?>
<svg id="Layer_1" data-name="Layer 1" xmlns="http://www.w3.org/2000/svg" xmlns:xlink="http://www.w3.org/1999/xlink" viewBox="0 0 500 500">
  <defs>
    <style>
      .cls-1 {
        fill: url(#linear-gradient-2);
      }

      .cls-2 {
        font-size: 60px;
      }

      .cls-2, .cls-3, .cls-4, .cls-5, .cls-6 {
        fill: #fff;
      }

      .cls-2, .cls-3, .cls-4, .cls-6 {
        stroke: #fff;
        stroke-miterlimit: 10;
      }

      .cls-2, .cls-6 {
        font-family: ArialMT, Arial;
      }

      .cls-3 {
        stroke-width: .5px;
      }

      .cls-7 {
        fill: #dc713e;
      }

      .cls-8 {
        fill: url(#linear-gradient-3);
      }

      .cls-6 {
        font-size: 36px;
      }

      .cls-9 {
        fill: url(#linear-gradient);
      }

      .cls-10 {
        fill: #1a3b44;
      }
    </style>
    <linearGradient id="linear-gradient" x1="93.07" y1="341.47" x2="400.26" y2="341.47" gradientUnits="userSpaceOnUse">
      <stop offset=".02" stop-color="#414042"/>
      <stop offset=".18" stop-color="#e6e7e8"/>
      <stop offset=".7" stop-color="#414042"/>
      <stop offset=".84" stop-color="#a7a9ac"/>
      <stop offset="1" stop-color="#414042"/>
    </linearGradient>
    <linearGradient id="linear-gradient-2" x1="88.54" y1="312.02" x2="405.65" y2="312.02" gradientUnits="userSpaceOnUse">
      <stop offset=".07" stop-color="#414042"/>
      <stop offset=".21" stop-color="#e6e7e8"/>
      <stop offset=".45" stop-color="#6d6e71"/>
      <stop offset=".63" stop-color="#fff"/>
      <stop offset=".75" stop-color="#808285"/>
      <stop offset=".91" stop-color="#414042"/>
    </linearGradient>
    <linearGradient id="linear-gradient-3" x1="88.37" y1="264.35" x2="405.58" y2="264.35" xlink:href="#linear-gradient"/>
  </defs>
  <rect class="cls-10" x="0" y="0" width="500" height="500" rx="250" ry="250"/>
  <path class="cls-7" d="M262.54,137.87c-5.09,0-9.42,3.65-10.93,8.7.42,0,.84.04,1.26.06,1.42-4.42,5.22-7.58,9.67-7.58,5.35,0,9.76,4.58,10.23,10.41.41.1.83.19,1.24.3-.34-6.62-5.35-11.89-11.47-11.89Z"/>
  <path class="cls-7" d="M246.98,111.75c-84.29,0-152.61,68.32-152.61,152.6,0,3.55.12,7.07.36,10.55.61,8.91,1.98,17.6,4.04,26.02,17.25,60.27,68.52,105.61,131.01,112.63,1.9-1.42,3.97-2.85,6.4-3.97,15.26-7.09,63.3-22.88,63.3-22.88,8.79-3.35,31.95-12.17,51.65-24.27,6.43-3.94,14.27-9.33,22.83-16.69,11.05-16.53,19.14-35.31,23.44-55.56.86-5.05,1.48-10.18,1.83-15.38.23-3.45.35-6.94.35-10.45,0-84.28-68.32-152.6-152.6-152.6ZM296.78,370.86c-.16.07-.31.15-.47.22-15.23,7.18-32.23,11.19-50.18,11.19-19.36,0-37.63-4.67-53.75-12.95-.62-.31-1.23-.63-1.84-.96-37.09-19.86-62.32-58.98-62.32-104.01,0-63.27,49.83-114.89,112.4-117.77.1-.57.23-1.11.36-1.67-.03-.53.02-1.06.16-1.59.17-.4.34-.8.5-1.19.1-.18.23-.33.35-.5,1.59-4.43,3.95-9.16,7.56-12.2.35-.97.98-1.83,1.9-2.39.57-.8,1.41-1.45,2.58-1.82,5.74-1.82,12.67-2.41,19.47-1.74,9.44.14,21.27,3.84,27.11,11.74,3.24,4.38,4.13,9.34,4.59,14.64.12,1.37.3,2.71.5,4.04.71,1.55,1.34,3.14,1.85,4.77.6,1.89.86,3.94,1.35,5.88,33.13,20.87,55.15,57.75,55.15,99.8,0,47-27.49,87.57-67.27,106.51Z"/>
  <path class="cls-7" d="M294.73,154.35c-.82-1.48-.82-2.91-.33-4.13-.46-4.25-1.14-7.69-5.17-10.76-1.66-1.27-3.56-2.33-5.6-3.2,1.5,2.6,2.55,5.39,3.42,8.3,1.05,3.52,1.18,5.98.75,9.47.2.08.4.15.59.23.32.11.62.23.93.35h.01c1.99.78,3.94,1.63,5.86,2.52-.11-.82-.21-1.63-.31-2.45-.06-.11-.1-.21-.16-.32Z"/>
  <path class="cls-9" d="M400.26,271.42c-.59,6.37-1.55,12.64-2.86,18.76-4.3,20.25-12.39,39.03-23.44,55.56-8.56,7.36-16.4,12.75-22.83,16.69-19.7,12.1-42.86,20.92-51.65,24.27,0,0-48.04,15.79-63.3,22.88-2.43,1.12-4.5,2.55-6.4,3.97-62.49-7.02-113.76-52.36-131.01-112.63-2.89-10.12-4.83-20.67-5.7-31.52.52,1.85,1.06,3.68,1.66,5.5,5.29,16.62,13.32,32.05,23.58,45.79,28.79,38.58,75.05,63.77,127.4,64.18,71.91.56,133.09-45.82,153.52-110.07.35-1.12.7-2.25,1.03-3.38Z"/>
  <path class="cls-1" d="M89.32,248.52c.33-3.16.76-6.29,1.28-9.4,1.04,8.18,2.68,16.17,4.9,23.91,19.04,66.66,79.88,115.4,152,115.4s131.27-47.39,151.19-112.62c2.36-7.73,4.16-15.7,5.34-23.88.91,6.09,1.45,12.3,1.62,18.59-.04.18-.09.35-.13.53-2.13,8.62-4.95,16.96-8.39,24.98-.1.23-.2.46-.3.69-25.11,57.79-82.7,98.21-149.73,98.21s-125.11-40.76-150.05-98.94c-.06-.13-.11-.27-.17-.4-3.43-8.06-6.23-16.44-8.34-25.1.11-4.03.37-8.02.78-11.97Z"/>
  <g id="robot_arm">
    <path class="cls-4" d="M233.31,364.14c-8.7-2.7-19.12-4.94-27.72-8.09-.09-5.65-.17-11.3-.26-16.96,28.44-.15,55.78.2,83.22.24-3.39-2.96-6.78-5.38-10.17-8.33-.03,0-8.05.17-8.05.17,0,0-29.19,1.07-29.8,1.08-2.62,1.79-8.28,4.81-15.89,4.23-5.31-.41-11.36-2.79-11.22-4.43,53.09-.52,57-3.85,57-3.85,0,0-39.91,0-60.39.72-.95.03-.96,4.08-3.91,6.52-2.79,2.3-5.8,2.56-6.78,2.61.09,7.04.11,20.53.11,20.53,0,0-3.14.06-5.33.08.12,2.69.28,2.86.98,3.92,1.08.9,1.84,1.18,4.21,1.25,10.78.35,23.23-.04,34.01.31Z"/>
    <path class="cls-4" d="M289.07,360.19v-20.35l-37.17.78s-1.42,3.62-1.63,4.89c-.33,2.06,0,8.16,0,8.16h8.1s.04,1.85.04,1.85l-2.38-.02.12,14.01s14.76-.27,22.15-2.15c16.58-4.21,17.61-7.19,17.61-7.19h-6.82Z"/>
    <rect class="cls-5" x="248.11" y="354.68" width="5.35" height="14.84"/>
    <path class="cls-3" d="M238.13,325.17c9.87-.09,19.74-.17,29.61-.26,2.3-3.17,4.61-6.35,6.91-9.52-8.48.13-16.96.26-25.43.39.09-.57.17-1.13.26-1.7l25.7-.78c.77-2.47,1.91-7.43.52-13.3-2.49-10.52-11.12-15.63-12.78-16.57-11.17-.04-22.35-.09-33.52-.13,9.98,2.97,17.08,11.49,17.87,21.26.97,12.12-8.27,19.91-9.13,20.61Z"/>
    <path class="cls-5" d="M270.32,323.45c1.1-1.14,8.17-8.7,7.24-20.05-.83-10.2-7.53-16.23-8.9-17.41,9.85,2.35,14.27,9.05,14.97,17.32.75,8.81-4.73,17.19-13.3,20.15Z"/>
    <path class="cls-5" d="M234.13,288.12c-3.11-2.59-6.93-4.12-11.06-4.12-6.5,0-12.24,3.78-15.62,9.51-.5.85-.95,1.74-1.34,2.67-1.19,2.81-1.85,5.95-1.85,9.27,0,11.82,8.44,21.44,18.81,21.44s18.8-9.62,18.8-21.44c0-7.11-3.05-13.43-7.74-17.33ZM223.07,324.89c-9.27,0-16.81-8.72-16.81-19.44s7.54-19.45,16.81-19.45,16.8,8.72,16.8,19.45-7.54,19.44-16.8,19.44ZM234.13,288.12c-3.11-2.59-6.93-4.12-11.06-4.12-6.5,0-12.24,3.78-15.62,9.51l.52.66-1.71,2.2-.15-.19c-1.19,2.81-1.85,5.95-1.85,9.27,0,11.82,8.44,21.44,18.81,21.44s18.8-9.62,18.8-21.44c0-7.11-3.05-13.43-7.74-17.33ZM223.07,324.89c-9.27,0-16.81-8.72-16.81-19.44s7.54-19.45,16.81-19.45,16.8,8.72,16.8,19.45-7.54,19.44-16.8,19.44Z"/>
    <path class="cls-4" d="M202.6,229.09c-3.39-5.7-9.12-9.46-15.59-9.46-10.37,0-18.81,9.62-18.81,21.44,0,7.71,3.58,14.47,8.94,18.25,1.74,1.23,3.66,2.15,5.71,2.66h.01c1.34.36,2.73.54,4.15.54,10.36,0,18.8-9.62,18.8-21.45,0-4.43-1.19-8.56-3.21-11.98ZM187.01,260.52c-9.27,0-16.81-8.72-16.81-19.45s7.54-19.44,16.81-19.44,16.8,8.72,16.8,19.44-7.54,19.45-16.8,19.45Z"/>
    <path class="cls-4" d="M305.26,215.89c-3.54,0-6.41,3.02-6.41,6.74,0,2.33,1.12,4.38,2.83,5.59,1.02.73,2.25,1.16,3.58,1.16,3.54,0,6.42-3.03,6.42-6.75s-2.88-6.74-6.42-6.74ZM305.26,227.9c-2.72,0-4.93-2.37-4.93-5.27s2.21-5.26,4.93-5.26,4.93,2.36,4.93,5.26-2.21,5.27-4.93,5.27Z"/>
    <path class="cls-4" d="M262.44,127.5c-9.99,0-18.28,8.26-19.69,18.99-.15,1.06-.22,2.15-.22,3.26,0,12.28,8.93,22.26,19.91,22.26,2.74,0,5.36-.62,7.74-1.75.28-.13.56-.27.83-.42,6.11-3.26,10.49-9.91,11.23-17.76.07-.76.11-1.54.11-2.33,0-12.27-8.93-22.25-19.91-22.25ZM262.44,169.94c-9.81,0-17.79-9.06-17.79-20.19,0-1.12.08-2.22.24-3.29,1.39-9.56,8.73-16.88,17.55-16.88,9.81,0,17.79,9.05,17.79,20.17,0,.57-.02,1.13-.06,1.68-.76,10.35-8.42,18.51-17.73,18.51Z"/>
    <path class="cls-4" d="M274.01,149.76c-.34-6.62-5.35-11.89-11.47-11.89-5.09,0-9.42,3.65-10.93,8.7-.37,1.23-.57,2.55-.57,3.92,0,6.96,5.16,12.62,11.5,12.62s11.49-5.66,11.49-12.62c0-.24-.01-.49-.02-.73ZM262.54,161.93c-5.67,0-10.27-5.13-10.27-11.44,0-1.35.21-2.65.6-3.86,1.42-4.42,5.22-7.58,9.67-7.58,5.35,0,9.76,4.58,10.23,10.41.03.34.04.68.04,1.03,0,6.31-4.61,11.44-10.27,11.44Z"/>
    <path class="cls-5" d="M235.72,324.2c.49-.32,10.82-7.27,10.3-19.57-.37-8.82-7.76-16.88-16.27-20.09,1.13.75,13.47,7.16,13.21,20.09-.22,11.08-6.1,18.38-7.24,19.57Z"/>
    <polygon class="cls-3" points="218.37 282.26 259.46 282.26 238.69 263.18 202.03 263.18 218.37 282.26"/>
    <polygon class="cls-3" points="233.63 261.2 206.63 261.2 211.46 252.72 229.91 252.72 226.91 256.7 233.63 261.2"/>
    <path class="cls-3" d="M271.26,186.91c-9.37,17.33-15.9,27.56-20.22,33.78-4.86,7.01-13.26,18.07-15.39,22.04-.15.27-1.06,2-2.74,3.91-.81.92-1.68,1.91-2.87,2.61-2.17,1.28-4.46,1.03-6,.91-2.78-.22-6.66-.31-12,.13.49-1.89,1.33-4.75,2.74-8.09,2.29-5.44,4.82-9.14,5.61-10.3,4.1-6.11,15.32-24.73,31.17-51.39,1.05,1.37,3.5,4.19,7.7,5.87,5.53,2.21,10.45.98,12,.52Z"/>
    <path class="cls-5" d="M199.13,261.59c1.41-.76,10.57-5.84,12.46-15.91,1.96-10.5-4.77-22.14-16.83-27.07.59.38,13.92,9.17,13.24,24.39-.47,10.52-7.31,17.15-8.87,18.59Z"/>
    <path class="cls-4" d="M235.68,315.52c.47-2.23.77-5.69.29-9.88-.55-4.86-2.71-8.69-4.01-10.76,2.9,1.89,5.28,6.16,5.77,9.2.96,5.98-1.46,10.48-2.05,11.45Z"/>
    <polygon class="cls-3" points="206.26 296.37 207.97 294.17 180.88 259.45 176.73 258.8 206.26 296.37"/>
    <path class="cls-3" d="M176.43,248.22c.26.44,2.74,4.43,6.98,4.63,4.44.21,7.6-3.9,8.61-6.78,1.84-5.27-1.42-12.38-8.61-16.7,9.38,2.46,12.11,11.9,10.76,16.7-.84,2.97-2.6,7.66-6.78,8.48-4.86.95-9.83-1.67-10.96-4.7-.16-.53-.13-1.28,0-1.63Z"/>
    <path class="cls-3" d="M214.55,240.1s1.17-3.03-.98-14.97c-2.15-11.93-5.77-11.45-5.77-11.45l31.99-46.66s10.27,10.37,12.47,12.42c0,0,4.16,3.62,8.85,5.09s11.01-1.17,11.01-1.17c0,0-2.03.7-11.2-2.25s-22.21-19.96-22.21-19.96l-41.09,55.37s.72.62,2.05-.07,2.48-2.41,4.43-2.09c1.96.33,1.43.29,3,1.76s3.33,3.91,4.4,8.61c1.08,4.7,3.03,15.36,3.03,15.36Z"/>
    <path class="cls-5" d="M232.65,257.87c.94-.69,3.44-2.73,4.63-6.39,1.44-4.43-.47-7.36-.88-8.32-.06,2.13-.13,4.5-.5,7.14-.25,1.79-2.24,5.7-3.25,7.57Z"/>
    <path class="cls-3" d="M283.46,162.78c1.07-1.81,4.86-8.7,3.13-17.48-2.41-12.25-13.45-17.48-14.61-18,2.96-.55,8.26-1.08,14.22.91,1.39.47,12.95,4.53,16.24,15.13.51,1.65,2.61,9.22-1.24,12.59-1.82,1.59-4.25,1.62-4.96,1.63-4.63.06-7.51-3.55-7.89-4.04.08.85.17,2.95-.98,5.22-1.24,2.44-3.17,3.64-3.91,4.04Z"/>
    <polygon class="cls-3" points="283.07 165.07 306.93 164.67 303.47 155.87 301.07 158.74 288.54 158.74 283.07 165.07"/>
    <polygon class="cls-3" points="305.73 207.52 326.17 207.52 307.68 166.34 289.78 166.34 305.73 207.52"/>
    <path class="cls-3" d="M268.26,172.01c1.01-.55,2.02-1.11,3.03-1.66l21.03,47.15c1.3-1.88,3.08-4.12,5.48-6.36,2.01-1.88,3.97-3.32,5.67-4.4-5.28-13.21-10.57-26.41-15.85-39.62l1.17-.59c5.45,13.83,10.89,27.65,16.34,41.48-1.46.68-3.97,2.09-6.16,4.79-3.11,3.84-3.68,7.94-3.82,9.59-1.4.03-2.8.07-4.21.1.17-.75.33-1.89.1-3.23-.44-2.59-2.02-4.22-2.64-4.79-6.72-14.15-13.43-28.3-20.15-42.46Z"/>
    <path class="cls-3" d="M329.26,228.36c-2.32-.46-4.16-.59-6.93-.98s-5.15-.71-7.4-.85c.31-1.05.86-3.47-.2-5.97-1.53-3.61-5.78-5.9-10.6-5.54,1.33-1.4,2.65-2.8,3.98-4.21,6.1.07,12.2.13,18.29.2.13.88.67,3.62-1.08,6.03-1.84,2.55-7.09,4.62-7.57,4.66.26-.07,5.17-1.03,7.96.46,3.75,1.99,3.55,2.57,3.54,6.2Z"/>
    <path class="cls-3" d="M314.83,228.65c5.41.33,10.83.65,16.24.98,1.01,2,2.1,4.56,2.93,7.63.88,3.22,1.24,6.1,1.37,8.41-3.02-.05-6.3-.22-9.78-.59-2.92-.31-5.67-.71-8.22-1.17.13-1.85.14-4.11-.2-6.65-.47-3.56-1.44-6.48-2.35-8.61Z"/>
    <path class="cls-3" d="M317.37,245.54c5.93.54,11.87,1.09,17.8,1.63.29,1.99.48,5.03-.26,8.61-.63,3.04-1.71,5.42-2.61,7.04-5.14-.17-10.28-.35-15.42-.52.03.55.07,1.11.1,1.66-3.88.23-7.76.46-11.64.68-.03-.82-.07-1.63-.1-2.45.96.22,2.61.47,4.6.1,0,0,3.08-.58,5.38-2.64,3.24-2.9,4.18-8.57,2.15-14.12Z"/>
    <polygon class="cls-5" points="323.04 268.96 330.48 269.45 330.48 263.97 323.04 263.97 323.04 268.96"/>
    <rect class="cls-5" x="314.04" y="264.65" width="7.43" height="4.11"/>
    <polygon class="cls-3" points="311.99 283.3 319.72 283.3 321.48 269.45 312.58 269.45 311.99 283.3"/>
    <polygon class="cls-3" points="321.48 284.74 327.25 284.74 329.99 270.52 323.04 270.13 321.48 284.74"/>
    <polygon class="cls-3" points="320.33 285.49 325.73 285.98 315.9 299.18 311.99 299.18 320.33 285.49"/>
    <polygon class="cls-3" points="305.26 298.6 309.45 298.6 318.35 284.74 311.68 284.32 305.26 298.6"/>
    <path class="cls-3" d="M307.88,282.95l-2.64-.2c-.95,1.52-1.99,3.48-2.84,5.87-1.29,3.67-1.62,6.96-1.66,9.29-.84-.05-2.05-.28-2.74-1.17-.96-1.24-.4-3.09.39-5.48.83-2.5,1.95-5.69,3.42-9.39h2.05c-.07-.36-.13-.72-.2-1.08-.65-.13-1.3-.26-1.96-.39.39-6.16.78-12.33,1.17-18.49-.08-.99-.3-2.33-.88-3.82-.8-2.04-1.95-3.46-2.74-4.3-.69.95-1.66,2.53-2.25,4.7-.63,2.31-.54,4.29-.39,5.48h-6.07c1.11-.91,2.48-2.25,3.72-4.11,2.22-3.35,2.84-6.66,3.03-8.51,1.03.15,2.59.53,4.01,1.66,2.05,1.64,2.77,4.03,3.23,6.55,1.35,7.53.39,16.65,0,19.86.51.49,1.04,1.01,1.57,1.57.63.66,1.22,1.32,1.76,1.96Z"/>
    <path class="cls-3" d="M290.63,265.83c2.13-.17,4.26-.35,6.39-.52.09,4,.17,8,.26,12-.06.84-.31,2.47-1.5,3.91-1.78,2.17-4.94,3.01-8.09,2.22-.33-6.04-.65-12.09-.98-18.13.5.02,1,.04,1.5.06.35,4.7.7,9.4,1.05,14.1.44-.03,1.19-.14,1.96-.59,0,0,1.04-.6,1.76-1.89.96-1.7.25-6.1-2.35-11.15Z"/>
    <path class="cls-3" d="M302.63,252.72c.39.04.47-.67,1.17-1.3,1.37-1.25,3.25-.5,5.41-.78,0,0,2.54-.33,4.89-2.48,2.97-2.71,2.15-10.33-2.41-18.26-.54.37-1.09.74-1.63,1.11,2.41,3.98,3.06,7.51,3.26,9.59.28,2.86.53,5.49-1.24,7.37-1.94,2.07-5.73,2.59-6.98,1.3-.52-.53-.5-1.27-1.11-1.43-.71-.19-1.62.58-2.02,1.37-.74,1.45,0,3.46.65,3.52Z"/>
    <path class="cls-3" d="M302.17,231.98c-.74-.61-1.48-1.22-2.22-1.83-1.58,3.73-3.23,6.54-4.43,8.41-2.79,4.33-4.13,5.03-6.39,9.2-1.28,2.36-2.61,4.86-3.2,8.41-.56,3.41-.18,6.27.2,8.09.89.02,1.78.04,2.67.07.09-.72.17-1.43.26-2.15-.37-.15-.74-.3-1.11-.46-.12-.5-.26-1.24-.33-2.15,0,0-.15-2.06.33-4.17.79-3.5,3.78-6.39,7.43-12.52,1.42-2.38,1.84-3.41,3.78-6.46,1.22-1.92,2.29-3.45,3-4.43Z"/>
    <path class="cls-4" d="M295.91,369c.17-1.83.35-3.65.52-5.48-10.76,5.28-33.76,8.33-54.57,8.74-24.68.49-37.2-4.95-48.22-9.52-.78,1.39-1.57,2.78-2.35,4.17,9.34,4.8,26.43,12.2,48.72,12.2,21.96,0,46.01-5.53,55.89-10.11Z"/>
  </g>
  <polygon class="cls-5" points="449.39 240.53 454.8 257.17 472.29 257.17 458.14 267.45 463.55 284.09 449.39 273.81 435.24 284.09 440.64 267.45 426.49 257.17 443.98 257.17 449.39 240.53"/>
  <polygon class="cls-5" points="48.7 240.51 54.1 257.15 71.6 257.15 57.44 267.43 62.85 284.07 48.7 273.79 34.54 284.07 39.95 267.43 25.79 257.15 43.29 257.15 48.7 240.51"/>
  <path class="cls-8" d="M405.53,260.3c-.17-6.29-.71-12.5-1.62-18.59-11.18-75.29-77.3-133.29-156.93-133.29s-144.1,56.56-156.5,130.48c-1.17,6.98-1.87,14.11-2.06,21.37-.03,1.36-.05,2.72-.05,4.08,0,77.77,58.22,142.43,134.06,154.06h.01c8,1.23,16.19,1.87,24.54,1.87,70.21,0,129.91-45.09,150.72-107.36,5.11-15.29,7.88-31.62,7.88-48.57,0-1.35-.02-2.7-.05-4.05ZM246.98,413.28c-5.48,0-10.89-.29-16.22-.85-68.8-7.22-123.98-59.83-133.83-126.66-1.03-7-1.56-14.15-1.56-21.42,0-.51,0-1.03.01-1.54.84-81.41,68.52-147.39,151.6-147.39s151.6,66.81,151.6,148.93c0,.41,0,.83,0,1.24-.05,6.86-.58,13.61-1.56,20.22-2.59,17.55-8.3,34.12-16.57,49.14-25.65,46.6-75.86,78.33-133.46,78.33Z"/>
  <text class="cls-2" transform="translate(81.56 212.65) rotate(-74.07)"><tspan x="0" y="0">J</tspan></text>
  <text class="cls-2" transform="translate(93.99 172.67) rotate(-58.04)"><tspan x="0" y="0">A</tspan></text>
  <text class="cls-2" transform="translate(122.49 129.22) rotate(-38.79)"><tspan x="0" y="0">M</tspan></text>
  <text class="cls-2" transform="translate(172.28 92.81) rotate(-19.44)"><tspan x="0" y="0">B</tspan></text>
  <text class="cls-2" transform="translate(221.74 77.33) rotate(-1.76)"><tspan x="0" y="0">S</tspan></text>
  <text class="cls-2" transform="translate(273.7 76.86) rotate(17.52)"><tspan x="0" y="0">M</tspan></text>
  <text class="cls-2" transform="translate(331.6 98.14) rotate(36.91)"><tspan x="0" y="0">A</tspan></text>
  <text class="cls-2" transform="translate(371.92 130.7) rotate(54.46)"><tspan x="0" y="0">S</tspan></text>
  <text class="cls-2" transform="translate(400.74 173.82) rotate(72.73)"><tspan x="0" y="0">H</tspan></text>
  <text class="cls-6" transform="translate(81.23 387.73) rotate(54.59)"><tspan x="0" y="0">I</tspan></text>
  <text class="cls-6" transform="translate(94.06 405.3) rotate(46.06)"><tspan x="0" y="0">N</tspan></text>
  <text class="cls-6" transform="translate(122.06 432.43) rotate(35.15)"><tspan x="0" y="0">V</tspan></text>
  <text class="cls-6" transform="translate(152.88 452.67) rotate(24.5)"><tspan x="0" y="0">E</tspan></text>
  <text class="cls-6" transform="translate(186.96 466.88) rotate(13.79)"><tspan x="0" y="0">S</tspan></text>
  <text class="cls-6" transform="translate(222.88 474.42) rotate(3.49)"><tspan x="0" y="0">T</tspan></text>
  <text class="cls-6" transform="translate(258.14 475.67) rotate(-7.72)"><tspan x="0" y="0">M</tspan></text>
  <text class="cls-6" transform="translate(300.89 468.18) rotate(-19.44)"><tspan x="0" y="0">E</tspan></text>
  <text class="cls-6" transform="translate(335.47 454.74) rotate(-30.46)"><tspan x="0" y="0">N</tspan></text>
  <text class="cls-6" transform="translate(368.23 433.87) rotate(-41.06)"><tspan x="0" y="0">T</tspan></text>
  <text class="cls-6" transform="translate(393.63 410.37) rotate(-51.28)"><tspan x="0" y="0">S</tspan></text>
</svg>